<svg width="461" height="245" viewBox="0 0 461 245" fill="none" xmlns="http://www.w3.org/2000/svg">
<path d="M348.778 177.238H379.864V213.473H410.949" stroke="#CACACA" stroke-dasharray="10 10"/>
<path d="M105.566 177.983H83.9994V103.924H55.1084" stroke="#CACACA" stroke-dasharray="10 10"/>
<path d="M0 103.057C0 86.4882 13.4315 73.0568 30 73.0568V73.0568C46.5685 73.0568 60 86.4882 60 103.057V103.057C60 119.625 46.5685 133.057 30 133.057V133.057C13.4315 133.057 0 119.625 0 103.057V103.057Z" fill="#FFF0F0"/>
<path d="M28.4902 93.2868L23.5002 95.1668C22.3502 95.5968 21.4102 96.9568 21.4102 98.1768V105.607C21.4102 106.787 22.1902 108.337 23.1402 109.047L27.4402 112.257C28.8502 113.317 31.1702 113.317 32.5802 112.257L36.8802 109.047C37.8302 108.337 38.6102 106.787 38.6102 105.607V98.1768C38.6102 96.9468 37.6702 95.5868 36.5202 95.1568L31.5302 93.2868C30.6802 92.9768 29.3202 92.9768 28.4902 93.2868Z" stroke="#E04E4E" stroke-width="1.2" stroke-linecap="round" stroke-linejoin="round"/>
<path d="M32.1504 104.497L27.9004 100.247" stroke="#E04E4E" stroke-width="1.2" stroke-miterlimit="10" stroke-linecap="round" stroke-linejoin="round"/>
<path d="M32.0996 100.297L27.8496 104.547" stroke="#E04E4E" stroke-width="1.2" stroke-miterlimit="10" stroke-linecap="round" stroke-linejoin="round"/>
<path d="M401 207.983C401 191.414 414.431 177.983 431 177.983V177.983C447.569 177.983 461 191.414 461 207.983V207.983C461 224.551 447.569 237.983 431 237.983V237.983C414.431 237.983 401 224.551 401 207.983V207.983Z" fill="#FFF0F0"/>
<path d="M438.79 210.913C436.73 212.963 433.78 213.593 431.19 212.783L426.48 217.483C426.14 217.833 425.47 218.043 424.99 217.973L422.81 217.673C422.09 217.573 421.42 216.893 421.31 216.173L421.01 213.993C420.94 213.513 421.17 212.843 421.5 212.503L426.2 207.803C425.4 205.203 426.02 202.253 428.08 200.203C431.03 197.253 435.82 197.253 438.78 200.203C441.74 203.153 441.74 207.963 438.79 210.913Z" stroke="#E04E4E" stroke-width="1.2" stroke-miterlimit="10" stroke-linecap="round" stroke-linejoin="round"/>
<path d="M425.89 213.473L428.19 215.773" stroke="#E04E4E" stroke-width="1.2" stroke-miterlimit="10" stroke-linecap="round" stroke-linejoin="round"/>
<path d="M433.5 206.983C434.328 206.983 435 206.311 435 205.483C435 204.654 434.328 203.983 433.5 203.983C432.672 203.983 432 204.654 432 205.483C432 206.311 432.672 206.983 433.5 206.983Z" stroke="#E04E4E" stroke-width="1.2" stroke-linecap="round" stroke-linejoin="round"/>
<path d="M294 37C294 16.5655 310.565 0 331 0V0C351.435 0 368 16.5655 368 37V38C368 58.4345 351.435 75 331 75V75C310.565 75 294 58.4345 294 38V37Z" fill="#FFF0F0"/>
<path d="M331 46.2833C334.129 46.2833 336.666 43.7463 336.666 40.6167C336.666 37.4871 334.129 34.95 331 34.95C327.87 34.95 325.333 37.4871 325.333 40.6167C325.333 43.7463 327.87 46.2833 331 46.2833Z" stroke="#E04E4E" stroke-width="1.2" stroke-miterlimit="10" stroke-linecap="round" stroke-linejoin="round"/>
<path d="M331.354 38.8458V40.1633C331.354 40.6592 331.099 41.1267 330.66 41.3817L329.583 42.0333" stroke="#E04E4E" stroke-width="1.2" stroke-miterlimit="10" stroke-linecap="round" stroke-linejoin="round"/>
<path d="M325.333 51.6667H336.667C342.362 51.6667 343.382 49.3858 343.679 46.6092L344.742 35.2758C345.124 31.8192 344.133 29 338.083 29H323.917C317.868 29 316.876 31.8192 317.258 35.2758L318.321 46.6092C318.618 49.3858 319.638 51.6667 325.333 51.6667Z" stroke="#E04E4E" stroke-width="1.2" stroke-miterlimit="10" stroke-linecap="round" stroke-linejoin="round"/>
<path d="M325.333 29V27.8667C325.333 25.3592 325.333 23.3333 329.866 23.3333H332.133C336.666 23.3333 336.666 25.3592 336.666 27.8667V29" stroke="#E04E4E" stroke-width="1.2" stroke-miterlimit="10" stroke-linecap="round" stroke-linejoin="round"/>
<path d="M344.671 36.0833C342.22 37.8683 339.5 39.115 336.681 39.8233" stroke="#E04E4E" stroke-width="1.2" stroke-miterlimit="10" stroke-linecap="round" stroke-linejoin="round"/>
<path d="M317.712 36.4658C320.078 38.0808 322.656 39.2283 325.334 39.88" stroke="#E04E4E" stroke-width="1.2" stroke-miterlimit="10" stroke-linecap="round" stroke-linejoin="round"/>
<circle cx="142.878" cy="50.3131" r="10.681" fill="#E04E4E"/>
<path d="M94.5 176.057C94.5 138.225 125.168 107.557 163 107.557H284C321.832 107.557 352.5 138.225 352.5 176.057V176.057C352.5 213.888 321.832 244.557 284 244.557H163C125.168 244.557 94.5 213.888 94.5 176.057V176.057Z" fill="#E04E4E"/>
<path d="M164.966 188.943V182.185L185.426 154.657H195.966L175.94 182.185L171.042 180.759H205.204V188.943H164.966ZM188.34 198.057V188.943L188.65 180.759V172.637H198.136V198.057H188.34ZM226.808 198.801C223.253 198.801 220.071 197.933 217.26 196.197C214.449 194.419 212.238 191.857 210.626 188.509C209.014 185.161 208.208 181.11 208.208 176.357C208.208 171.603 209.014 167.553 210.626 164.205C212.238 160.857 214.449 158.315 217.26 156.579C220.071 154.801 223.253 153.913 226.808 153.913C230.404 153.913 233.587 154.801 236.356 156.579C239.167 158.315 241.378 160.857 242.99 164.205C244.602 167.553 245.408 171.603 245.408 176.357C245.408 181.11 244.602 185.161 242.99 188.509C241.378 191.857 239.167 194.419 236.356 196.197C233.587 197.933 230.404 198.801 226.808 198.801ZM226.808 190.307C228.503 190.307 229.97 189.831 231.21 188.881C232.491 187.93 233.483 186.421 234.186 184.355C234.93 182.288 235.302 179.622 235.302 176.357C235.302 173.091 234.93 170.425 234.186 168.359C233.483 166.292 232.491 164.783 231.21 163.833C229.97 162.882 228.503 162.407 226.808 162.407C225.155 162.407 223.687 162.882 222.406 163.833C221.166 164.783 220.174 166.292 219.43 168.359C218.727 170.425 218.376 173.091 218.376 176.357C218.376 179.622 218.727 182.288 219.43 184.355C220.174 186.421 221.166 187.93 222.406 188.881C223.687 189.831 225.155 190.307 226.808 190.307ZM263.757 198.801C260.739 198.801 257.743 198.408 254.767 197.623C251.791 196.796 249.269 195.639 247.203 194.151L251.109 186.463C252.762 187.661 254.684 188.612 256.875 189.315C259.065 190.017 261.277 190.369 263.509 190.369C266.03 190.369 268.014 189.873 269.461 188.881C270.907 187.889 271.631 186.525 271.631 184.789C271.631 183.135 270.99 181.833 269.709 180.883C268.427 179.932 266.361 179.457 263.509 179.457H258.921V172.823L271.011 159.121L272.127 162.717H249.373V154.657H279.753V161.167L267.725 174.869L262.641 171.955H265.555C270.887 171.955 274.917 173.153 277.645 175.551C280.373 177.948 281.737 181.027 281.737 184.789C281.737 187.227 281.096 189.521 279.815 191.671C278.533 193.779 276.57 195.494 273.925 196.817C271.279 198.139 267.89 198.801 263.757 198.801Z" fill="white"/>
</svg>
