<svg xmlns="http://www.w3.org/2000/svg" viewBox="0 0 190.51 46.53"><defs><style>.cls-1{fill:#e32a28;}</style></defs><g id="Layer_2" data-name="Layer 2"><g id="Layer_1-2" data-name="Layer 1"><path d="M66.85,11l4.21,12.21L75.26,11h3.45l2.91,18.87H78.5l-2-12.62L72.73,28.05H69.39L65.64,17.21l-2,12.62H60.46L63.4,11Z"/><path d="M94.65,18.08a6.94,6.94,0,0,1,2,5,6.94,6.94,0,0,1-2,5,6.73,6.73,0,0,1-9.71,0,7,7,0,0,1-2-5,7,7,0,0,1,2-5,6.77,6.77,0,0,1,9.71,0Zm-7.53,2.18a4.31,4.31,0,0,0,0,5.64,3.67,3.67,0,0,0,5.34,0,4.31,4.31,0,0,0,0-5.64,3.72,3.72,0,0,0-5.34,0Z"/><path d="M99.26,11h3.1V21.61l4.93-5.26h4.18L106.19,22l5.52,7.79h-3.83l-3.82-5.47-1.7,1.83v3.64h-3.1Z"/><path d="M116.7,11V29.83h-3.1V11Z"/><path d="M122.82,24.44a4.45,4.45,0,0,0,.43,1.17,4,4,0,0,0,.78,1,3.36,3.36,0,0,0,2.37.89,5.85,5.85,0,0,0,2-.28,5.35,5.35,0,0,0,1.52-.85l1.7,2a7.1,7.1,0,0,1-2.36,1.37,9.09,9.09,0,0,1-2.82.41,6.68,6.68,0,0,1-5-2.07,6.83,6.83,0,0,1-2-5,6.91,6.91,0,0,1,2-5,6.46,6.46,0,0,1,4.88-2,5.88,5.88,0,0,1,4.6,2,7.44,7.44,0,0,1,1.81,5.12v1.27ZM124,19.77A3.8,3.8,0,0,0,122.76,22h6.74a4.06,4.06,0,0,0-1.1-2.26,2.88,2.88,0,0,0-2.13-.81A3.47,3.47,0,0,0,124,19.77Z"/><path d="M139.24,12.15v4.2h3.69v3.07h-3.69V24A2.77,2.77,0,0,0,142,26.73h.91v3.1H142A5.87,5.87,0,0,1,136.14,24V19.42h-2.21V16.35h2.21v-4.2Z"/><path d="M148.46,29.61a1.93,1.93,0,0,1-1.41.6,2,2,0,0,1-1.43-.6,1.86,1.86,0,0,1-.59-1.4,2,2,0,0,1,2-2,2,2,0,0,1,1.41.59,2,2,0,0,1,.59,1.43A1.92,1.92,0,0,1,148.46,29.61Z"/><path d="M163,18.08a7,7,0,0,1,2,5,7,7,0,0,1-2,5,6.73,6.73,0,0,1-9.71,0,7,7,0,0,1-2-5,7,7,0,0,1,2-5,6.77,6.77,0,0,1,9.71,0Zm-7.52,2.18a4.28,4.28,0,0,0,0,5.64,3.66,3.66,0,0,0,5.33,0,4.28,4.28,0,0,0,0-5.64,3.71,3.71,0,0,0-5.33,0Z"/><path d="M170.54,16.35v1.89l.2-.22.2-.21a6.77,6.77,0,0,1,1.48-1.08,6.38,6.38,0,0,1,3.05-.7v3.1a4.86,4.86,0,0,0-3.21,1.13,4.63,4.63,0,0,0-1,1.35,4.89,4.89,0,0,0-.51,1.75v6.47h-3.1V16.35Z"/><path d="M187.25,17.51a1.36,1.36,0,0,1,.24.24l.22.27V16.35h2.8v12a8.74,8.74,0,0,1-.46,3,6.21,6.21,0,0,1-1.37,2.28,6,6,0,0,1-2.13,1.46,7.29,7.29,0,0,1-2.7.48,13,13,0,0,1-2.5-.2,7.75,7.75,0,0,1-1.81-.55,11.3,11.3,0,0,1-1.38-.78l1.43-2.51a6.49,6.49,0,0,0,1.92.92,8.2,8.2,0,0,0,2.21.27,3.27,3.27,0,0,0,2.75-1.19,4.64,4.64,0,0,0,.6-1.12,4,4,0,0,0,.26-1.33v-.29a1.58,1.58,0,0,1,0-.28.8.8,0,0,0-.15.17.9.9,0,0,1-.15.18,5,5,0,0,1-3.56,1.29,6.22,6.22,0,0,1-4.77-2,7.14,7.14,0,0,1-1.89-5,7.17,7.17,0,0,1,1.89-5,6.2,6.2,0,0,1,4.77-2A5,5,0,0,1,187.25,17.51Zm-6.2,2.75A4,4,0,0,0,180,23.09,4.09,4.09,0,0,0,181.05,26a3.53,3.53,0,0,0,2.7,1.13A3.34,3.34,0,0,0,186.36,26a4.54,4.54,0,0,0,.78-1.29,4.35,4.35,0,0,0,.27-1.57,4.26,4.26,0,0,0-.27-1.54,4.54,4.54,0,0,0-.78-1.29,3.3,3.3,0,0,0-2.61-1.16A3.49,3.49,0,0,0,181.05,20.26Z"/><path class="cls-1" d="M21.92,19.38l-1.79,5.51h0L17.3,22.84l-1.79-1.3a1.2,1.2,0,0,1,.7-2.16Z"/><path class="cls-1" d="M19.44,27l.69-2.11,4.69,3.4-1.41,1L20.2,31.66a1.19,1.19,0,0,1-1.83-1.33Z"/><path class="cls-1" d="M27.14,17.6l.58,1.78h-5.8l.58-1.78L23.69,14A1.19,1.19,0,0,1,26,14Z"/><path class="cls-1" d="M30.36,27.51l.91,2.82a1.19,1.19,0,0,1-1.83,1.33l-2.53-1.85L24.82,28.3l4.69-3.4Z"/><path class="cls-1" d="M31,23.84,29.51,24.9l-1.79-5.52h5.71a1.19,1.19,0,0,1,.7,2.15Z"/><path class="cls-1" d="M16.31,46.24s2.49-4.55,6.28-6.09l2.23-4.46,2.23,4.46c3.79,1.54,6.29,6.09,6.29,6.09,2.89-10.37-4.17-12.4-4.17-12.4l.38,4.29-4.73-6.77-4.73,6.77.38-4.29S13.42,35.87,16.31,46.24Z"/><circle class="cls-1" cx="24.82" cy="43.9" r="2.64"/><path class="cls-1" d="M45.68,10S41,12.23,37,11.24l-4.43,2.31.82-4.93C31.25,5.15,31.9,0,31.9,0,23.47,6.7,28,12.48,28,12.48l2.21-3.7-.15,8.27,7.81-2.7L35,17.6S41.92,20.1,45.68,10Z"/><circle class="cls-1" cx="37.41" cy="6.91" r="2.64"/><path class="cls-1" d="M17.74,0s.66,5.15-1.51,8.62l.82,4.93-4.43-2.31C8.66,12.23,4,10,4,10,7.72,20.1,14.62,17.6,14.62,17.6l-2.83-3.25,7.81,2.7-.15-8.27,2.21,3.7S26.17,6.7,17.74,0Z"/><circle class="cls-1" cx="12.23" cy="6.91" r="2.64"/><path class="cls-1" d="M44.38,38.79S40.82,35,40.53,30.93L37,27.43l4.94-.74c2.63-3.13,7.73-4.1,7.73-4.1-9-5.95-13.07.13-13.07.13l4.19,1-7.9,2.4,5,6.6-4-1.69S33.62,38.33,44.38,38.79Z"/><circle class="cls-1" cx="44.78" cy="29.97" r="2.64"/><path class="cls-1" d="M0,22.59s5.1,1,7.73,4.1l4.94.74-3.56,3.5C8.83,35,5.26,38.79,5.26,38.79,16,38.33,15.77,31,15.77,31l-4,1.69,5-6.6-7.91-2.4,4.2-1S9,16.64,0,22.59Z"/><circle class="cls-1" cx="4.86" cy="29.97" r="2.64"/></g></g></svg>